<?xml version="1.0" standalone="no"?>
<!DOCTYPE svg PUBLIC "-//W3C//DTD SVG 20010904//EN"
 "http://www.w3.org/TR/2001/REC-SVG-20010904/DTD/svg10.dtd">
<svg version="1.0" xmlns="http://www.w3.org/2000/svg"
 width="512.000000pt" height="512.000000pt" viewBox="0 0 512.000000 512.000000"
 preserveAspectRatio="xMidYMid meet">
<metadata>
Created by potrace 1.14, written by Peter Selinger 2001-2017
</metadata>
<g transform="translate(0.000000,512.000000) scale(0.100000,-0.100000)"
fill="#000000" stroke="none">
<path d="M1257 5034 c-1 -1 -31 -4 -67 -8 -170 -17 -301 -55 -455 -133 -276
-139 -513 -411 -631 -720 -35 -93 -81 -276 -91 -359 -10 -87 -10 -338 0 -425
4 -37 18 -109 31 -160 84 -320 247 -577 574 -906 125 -126 156 -155 341 -323
51 -47 106 -96 121 -110 15 -14 67 -61 116 -105 277 -248 651 -647 815 -869
21 -28 42 -56 47 -61 24 -28 177 -262 231 -354 34 -57 91 -163 127 -235 72
-144 94 -173 133 -178 47 -6 75 19 117 106 72 150 238 440 271 474 7 7 13 17
13 21 0 7 125 185 172 245 178 229 257 317 513 571 190 189 274 269 430 406
27 24 79 71 115 105 36 33 89 82 119 110 517 470 743 824 806 1259 13 88 13
382 1 435 -4 14 -9 44 -11 67 -9 67 -60 240 -101 336 -33 79 -123 240 -159
285 -157 195 -283 302 -461 391 -67 33 -249 103 -257 99 -2 -1 -72 13 -87 17
-3 1 -41 5 -85 10 -283 31 -610 -32 -886 -170 -168 -83 -295 -173 -432 -304
l-68 -65 -62 60 c-282 274 -643 443 -1025 480 -61 6 -211 12 -215 8z"/>
</g>
</svg>
